<?xml version="1.0" encoding="UTF-8"?>
<svg id="Capa_2" xmlns="http://www.w3.org/2000/svg" version="1.1" viewBox="0 0 400 100">
  <!-- Generator: Adobe Illustrator 29.8.2, SVG Export Plug-In . SVG Version: 2.1.1 Build 3)  -->
  <path d="M347.99,70.23c.4.11,3.61,6.19,4.21,7.06.09.14-.03.28.34.2v-7.26h3.09v13.29h-3.4l-4.09-7.11-.23,7.11h-3.09v-13.29h3.17Z"/>
  <polygon points="39.96 70.23 44.29 77.49 44.29 70.23 47.38 70.23 47.38 83.52 44.21 83.52 39.81 76.26 39.81 83.52 36.72 83.52 36.72 70.23 39.96 70.23"/>
  <polygon points="310.9 70.23 315.31 77.49 315.31 70.23 318.4 70.23 318.4 83.52 315.15 83.52 310.83 76.26 310.83 83.52 307.73 83.52 307.73 70.23 310.9 70.23"/>
  <path d="M256.2,70.23c.49.06,1.63.45,2.08.71,2.49,1.44,2.56,6.12.01,7.49l3.55,5.09h-3.63l-3.08-4.18-1.32-.14v4.33h-3.09v-13.29c1.74.15,3.79-.2,5.49,0ZM253.81,76.26c1.54.25,4.05-.12,3.13-2.28-.35-.82-2.47-1.09-3.13-.58v2.86Z"/>
  <path d="M147.89,70.23c4.24.5,5.34,5.87,2.08,8.28l3.56,5.01h-3.86c-.02-.18-.09-.34-.21-.48-.49-.61-2.39-3.56-2.73-3.76-.31-.19-.87-.04-1.23-.08v4.33h-3.09v-13.29c1.74.15,3.79-.2,5.49,0ZM145.49,76.26c1.24.01,3.25.3,3.26-1.47,0-1.86-1.9-1.62-3.26-1.62v3.09Z"/>
  <path d="M60.2,83.52v-13.29h5.02c6.03,0,7.2,10.79,1.42,12.85-.32.11-1.47.43-1.73.43h-4.71ZM63.29,73.17v7.26c2.49.34,3.9-.82,4.02-3.31.13-2.77-1.24-4.13-4.02-3.95Z"/>
  <path d="M378.04,82.05c-5.43,3.9-11.11.47-10.49-6.16.5-5.36,5.75-7.56,10-4.35l-1.37,2.49c-.25.16-1.29-.64-1.71-.78-5.25-1.8-5.21,9.66.47,7.08l-.07-1.3-2.1-.14v-2.94h5.25v6.1Z"/>
  <path d="M85.23,70.23v8.27c0,.05.19.9.23,1.01.64,1.87,3.79,1.44,3.79.07v-9.35h3.09v9.35c0,1.67-1.79,3.5-3.36,3.9-3.41.87-6.83-1.08-6.83-4.83v-8.42h3.09Z"/>
  <path d="M282.86,83.52h-3.24l-1.23-3.17h-3.56s-1.31,3.17-1.31,3.17h-3.17l5.01-13.3,2.79.16,4.71,13.14ZM277.45,77.34c-.33-.62-.38-1.54-.93-2.01l-.62,2.01h1.54Z"/>
  <path d="M175.62,83.52l4.81-13.27,2.69-.03,5.02,13.3h-3.24l-1.23-3.17h-3.56s-1.23,3.17-1.23,3.17h-3.24ZM182.73,77.34l-.93-2.01-.62,2.01h1.54Z"/>
  <path d="M111.34,73.79c-1-.3-4.22-1.72-4.72-.16-.77,2.39,2.06,2.03,3.54,2.66,3.05,1.29,2.85,5.55,0,6.91-2.01.96-4.77.54-6.7-.45l1.16-2.93c1.05.82,4.8,1.78,4.65-.39-.07-.94-2.89-1.24-3.69-1.65-2.23-1.13-2.82-4.25-1.34-6.23,1.65-2.21,5.93-1.99,8-.47l-.89,2.71Z"/>
  <polygon points="131.12 70.23 131.12 73.17 128.11 73.17 127.88 73.4 127.88 83.52 124.79 83.52 124.79 73.4 124.56 73.17 121.39 73.17 121.39 70.23 131.12 70.23"/>
  <polygon points="239.44 70.23 239.44 73.17 236.43 73.17 236.19 73.4 236.19 83.52 233.1 83.52 233.1 73.17 229.86 73.17 229.86 70.23 239.44 70.23"/>
  <polygon points="202.05 70.23 202.05 80.43 206.3 80.43 206.53 80.66 206.53 83.52 198.96 83.52 198.96 70.23 202.05 70.23"/>
  <rect x="162.49" y="70.23" width="3.09" height="13.29"/>
  <rect x="330.29" y="70.23" width="3.09" height="13.29"/>
  <rect x="22.04" y="70.23" width="3.09" height="13.29"/>
  <polygon points="296.15 70.23 296.15 83.52 293.29 83.52 293.06 83.29 293.06 70.23 296.15 70.23"/>
  <path d="M50.76,16.18v10.19h-20.38c-2.81,0-5.22.99-7.21,2.98-1.99,1.99-2.98,4.39-2.98,7.21s.99,5.22,2.98,7.21c1.99,1.99,4.39,2.98,7.21,2.98h20.38v10.19h-20.38c-5.63,0-10.43-1.99-14.41-5.97-3.98-3.98-5.97-8.78-5.97-14.41s1.99-10.43,5.97-14.41c3.98-3.98,8.78-5.97,14.41-5.97h20.38Z"/>
  <path d="M70.17,26.37v20.38h25.47v10.19h-35.66V16.18h35.66v10.19h-25.47ZM95.65,31.46v10.19h-20.38v-10.19h20.38Z"/>
  <path d="M114.83,26.37v30.57h-10.19V16.18h35.66v10.19h-25.47ZM140.3,31.46v10.19h-20.38v-10.19h20.38Z"/>
  <path d="M169.94,56.94c-5.63,0-10.43-1.99-14.41-5.97-3.98-3.98-5.97-8.78-5.97-14.41s1.99-10.43,5.97-14.41c3.98-3.98,8.78-5.97,14.41-5.97h7.66c5.61,0,10.41,1.99,14.4,5.97,3.99,3.98,5.98,8.78,5.98,14.41s-1.99,10.43-5.98,14.41c-3.99,3.98-8.79,5.97-14.4,5.97h-7.66ZM177.6,46.75c2.81,0,5.22-.99,7.21-2.98,1.99-1.99,2.98-4.39,2.98-7.21s-.99-5.22-2.98-7.21c-1.99-1.99-4.39-2.98-7.21-2.98h-7.66c-2.81,0-5.22.99-7.21,2.98s-2.98,4.39-2.98,7.21.99,5.22,2.98,7.21c1.99,1.99,4.39,2.98,7.21,2.98h7.66Z"/>
  <path d="M237.77,36.56c1.42,0,2.62-.5,3.61-1.48s1.48-2.19,1.48-3.61-.49-2.62-1.48-3.61-2.19-1.48-3.61-1.48h-20.38v30.57h-10.19V16.18h30.57c4.23,0,7.84,1.49,10.82,4.47,2.98,2.98,4.47,6.58,4.47,10.82s-1.48,7.83-4.45,10.8c-1.09,1.09-2.25,1.98-3.49,2.68l10.51,12h-12.75l-8.91-10.19h-11.47v-10.19h15.29Z"/>
  <path d="M287.66,26.37v30.57h-10.19v-30.57h-12.75v-10.19h35.66v10.19h-12.72Z"/>
  <path d="M332.47,26.37v30.57h-10.19v-30.57h-12.75v-10.19h35.66v10.19h-12.72Z"/>
  <path d="M364.53,26.37v20.38h25.47v10.19h-35.66V16.18h35.66v10.19h-25.47ZM390,31.46v10.19h-20.38v-10.19h20.38Z"/>
  <path d="M22.26,70.27h2.6v13.27h-2.6v-13.27Z"/>
  <path d="M36.78,70.28h.02v-.02h2.85l5.07,8.63.05.05v-8.68h2.6v13.27h-2.89l-5.07-8.58-.02,8.58h-2.6l-.02-13.26Z"/>
  <path d="M60.32,70.27h4.18c.89,0,1.7.14,2.43.43.73.29,1.36.72,1.88,1.28.52.57.92,1.26,1.2,2.08.28.82.43,1.76.43,2.83,0,1-.14,1.91-.43,2.73-.29.82-.7,1.51-1.23,2.09-.53.58-1.17,1.03-1.91,1.35-.74.32-1.57.48-2.48.48h-4.06v-13.27ZM62.92,72.77v8.28h1.58c.51,0,.97-.1,1.37-.29.41-.2.76-.48,1.05-.84.29-.37.51-.8.67-1.31.16-.51.24-1.07.24-1.7,0-1.33-.29-2.36-.87-3.07-.58-.71-1.4-1.06-2.46-1.06h-1.58Z"/>
  <path d="M88.87,80.86s.02.04.05.05v-.09c.63-.44.94-1.25.94-2.43v-8.13h2.6v8.13c0,.77-.1,1.48-.3,2.13-.2.65-.51,1.21-.92,1.68-.41.47-.94.84-1.57,1.12-.63.27-1.38.41-2.24.41h-.18c-.06,0-.12,0-.18-.02,0,.01,0,.02-.02.02-.05,0-.13,0-.25-.02-.12-.01-.24-.03-.37-.05-.14-.02-.3-.05-.48-.09l-.02-.04v.04c-.6-.15-1.13-.39-1.58-.7-.45-.31-.82-.69-1.12-1.14-.3-.45-.51-.96-.66-1.52s-.21-1.17-.21-1.81v-8.13h2.6v8.13c0,.95.2,1.65.59,2.13.4.47,1.01.71,1.85.71.06,0,.12,0,.19,0,.06,0,.13,0,.19,0,0-.01,0-.02.02-.02.08,0,.18-.02.3-.06.12-.04.23-.09.35-.13.11-.05.21-.09.28-.12.08-.03.12-.04.12-.03Z"/>
  <path d="M109.61,79.85s.02-.06.04-.1c.01-.04.02-.1.02-.17,0-.09-.03-.21-.09-.35-.06-.14-.18-.28-.37-.43-.19-.15-.45-.29-.8-.43-.34-.14-.8-.27-1.38-.37-1.09-.2-1.94-.66-2.57-1.36-.63-.71-.94-1.62-.94-2.73,0-.66.12-1.24.37-1.74.25-.5.58-.91,1-1.25.42-.34.91-.59,1.46-.75.56-.17,1.14-.25,1.75-.25.52,0,.97.02,1.34.07.37.05.71.11,1,.19.3.08.57.18.82.3.25.12.52.25.81.39l-.89,2.41c-.54-.28-1.06-.5-1.55-.65-.49-.15-1-.22-1.52-.22-.66,0-1.16.13-1.5.38-.34.25-.51.61-.51,1.07,0,.01,0,.02,0,.02s0,0,0,.02c0,.02,0,.07,0,.13,0,.07,0,.15,0,.26,0,.12.01.25.04.41.02.15.08.3.16.45.08.15.2.28.36.41.16.12.37.22.63.29.25.07.54.14.89.19.34.06.7.14,1.06.24.37.1.73.23,1.09.4.36.17.68.38.97.66s.51.61.69,1.02c.18.41.27.9.27,1.48,0,.65-.13,1.22-.39,1.72-.26.5-.6.91-1.03,1.24-.43.33-.92.58-1.48.75-.56.17-1.14.26-1.75.26-.52,0-.97-.02-1.34-.07-.37-.05-.71-.11-1-.19-.3-.08-.57-.17-.82-.29-.25-.12-.52-.25-.81-.39l.89-2.41c.54.27,1.06.48,1.55.63.49.15,1,.22,1.52.22.67,0,1.18-.13,1.51-.38.33-.25.5-.62.5-1.09Z"/>
  <path d="M121.55,70.27h9.53v2.5h-3.46v10.77h-2.6v-10.77h-3.47v-2.5Z"/>
  <path d="M147.03,70.27c.83,0,1.54.12,2.14.35.6.24,1.09.56,1.47.96.38.4.66.87.84,1.39.18.53.27,1.08.27,1.66,0,.89-.19,1.68-.57,2.37-.38.7-.92,1.23-1.63,1.59l3.65,4.94h-3.14l-3.21-4.47h-1.81v4.47h-2.6v-13.27h4.59ZM145.04,72.77v3.81h2.11c.38,0,.69-.05.95-.15.25-.1.46-.24.61-.42.15-.18.26-.38.33-.62.06-.24.1-.49.1-.76,0-.6-.16-1.06-.48-1.38-.32-.32-.78-.48-1.38-.48h-2.23Z"/>
  <path d="M162.78,70.27h2.6v13.27h-2.6v-13.27Z"/>
  <path d="M188.1,83.54h-2.73l-1.19-3.3h-4.41l-1.22,3.3h-2.71c.26-.7.49-1.32.69-1.86.2-.54.4-1.08.58-1.6.19-.53.39-1.07.6-1.65.21-.57.45-1.23.73-1.98.27-.75.58-1.62.94-2.62.35-1,.78-2.18,1.28-3.55h2.6l4.84,13.27ZM180.67,77.74h2.6l-1.31-3.61-1.29,3.61Z"/>
  <path d="M199.24,70.27h2.6v10.77h4.73v2.5h-7.34v-13.27Z"/>
  <path d="M230.03,70.27h9.53v2.5h-3.46v10.77h-2.6v-10.77h-3.47v-2.5Z"/>
  <path d="M255.51,70.27c.83,0,1.54.12,2.14.35.6.24,1.09.56,1.47.96.38.4.66.87.84,1.39.18.53.27,1.08.27,1.66,0,.89-.19,1.68-.57,2.37-.38.7-.92,1.23-1.63,1.59l3.65,4.94h-3.14l-3.21-4.47h-1.81v4.47h-2.6v-13.27h4.59ZM253.53,72.77v3.81h2.11c.38,0,.69-.05.95-.15.25-.1.46-.24.61-.42.15-.18.26-.38.33-.62.06-.24.1-.49.1-.76,0-.6-.16-1.06-.48-1.38-.32-.32-.78-.48-1.38-.48h-2.23Z"/>
  <path d="M282.76,83.54h-2.73l-1.19-3.3h-4.41l-1.22,3.3h-2.71c.26-.7.49-1.32.69-1.86.2-.54.4-1.08.58-1.6.19-.53.39-1.07.6-1.65.21-.57.45-1.23.73-1.98.27-.75.58-1.62.94-2.62.35-1,.78-2.18,1.28-3.55h2.6l4.84,13.27ZM275.34,77.74h2.6l-1.31-3.61-1.29,3.61Z"/>
  <path d="M293.35,70.27h2.6v13.27h-2.6v-13.27Z"/>
  <path d="M307.87,70.28h.02v-.02h2.85l5.07,8.63.05.05v-8.68h2.6v13.27h-2.89l-5.07-8.58-.02,8.58h-2.6l-.02-13.26Z"/>
  <path d="M330.38,70.27h2.6v13.27h-2.6v-13.27Z"/>
  <path d="M344.89,70.28h.02v-.02h2.85l5.07,8.63.05.05v-8.68h2.6v13.27h-2.89l-5.07-8.58-.02,8.58h-2.6l-.02-13.26Z"/>
  <path d="M377.95,76.77h.02v4.84h-.02v.71c-.21.15-.46.31-.75.48-.29.17-.62.32-1,.46-.38.14-.8.26-1.26.35s-.96.13-1.51.13c-.95,0-1.78-.18-2.51-.55-.73-.37-1.34-.86-1.83-1.48-.49-.62-.86-1.34-1.12-2.17-.25-.83-.38-1.71-.38-2.64v-.12c0-.85.13-1.68.38-2.48.25-.8.62-1.52,1.11-2.14.48-.63,1.08-1.13,1.8-1.51.71-.38,1.53-.57,2.44-.57.85,0,1.6.11,2.24.34.64.22,1.26.56,1.85.99l-1.24,2.22c-.24-.17-.45-.31-.66-.44-.2-.13-.41-.24-.62-.33-.21-.09-.44-.16-.68-.2-.24-.05-.52-.07-.84-.07-.53,0-1,.13-1.4.39-.4.26-.73.59-.99,1-.26.41-.45.86-.58,1.36-.13.5-.19.98-.19,1.45v.12c0,.5.06,1,.17,1.52.11.51.3.98.55,1.4.25.42.58.76.99,1.03.41.27.91.4,1.5.4.43,0,.79-.04,1.11-.11.31-.07.59-.15.82-.25v-2.14h-2.29v-2.5h4.89v.53Z"/>
</svg>